name D:\school\WTK\thesis\model\3dpredictsim\Results\PredSim_adaptations\Pog_s1_bCst_ig24.mot
datacolumns 126
datarows 4
range 0.53676224 0.56896798
endheader
time	pelvis_tilt	pelvis_list	pelvis_rotation	pelvis_tx	pelvis_ty	pelvis_tz	hip_flexion_l	hip_adduction_l	hip_rotation_l	hip_flexion_r	hip_adduction_r	hip_rotation_r	knee_angle_l	knee_angle_r	ankle_angle_l	ankle_angle_r	subtalar_angle_l	subtalar_angle_r	mtp_angle_l	mtp_angle_r	lumbar_extension	lumbar_bending	lumbar_rotation	arm_flex_l	arm_add_l	arm_rot_l	arm_flex_r	arm_add_r	arm_rot_r	elbow_flex_l	elbow_flex_r	pro_sup_l	pro_sup_r	glut_med1_l/activation	glut_med2_l/activation	glut_med3_l/activation	glut_min1_l/activation	glut_min2_l/activation	glut_min3_l/activation	semimem_l/activation	semiten_l/activation	bifemlh_l/activation	bifemsh_l/activation	sar_l/activation	add_long_l/activation	add_brev_l/activation	add_mag1_l/activation	add_mag2_l/activation	add_mag3_l/activation	tfl_l/activation	pect_l/activation	grac_l/activation	glut_max1_l/activation	glut_max2_l/activation	glut_max3_l/activation	iliacus_l/activation	psoas_l/activation	quad_fem_l/activation	gem_l/activation	peri_l/activation	rect_fem_l/activation	vas_med_l/activation	vas_int_l/activation	vas_lat_l/activation	med_gas_l/activation	lat_gas_l/activation	soleus_l/activation	tib_post_l/activation	flex_dig_l/activation	flex_hal_l/activation	tib_ant_l/activation	per_brev_l/activation	per_long_l/activation	per_tert_l/activation	ext_dig_l/activation	ext_hal_l/activation	ercspn_l/activation	intobl_l/activation	extobl_l/activation	glut_med1_r/activation	glut_med2_r/activation	glut_med3_r/activation	glut_min1_r/activation	glut_min2_r/activation	glut_min3_r/activation	semimem_r/activation	semiten_r/activation	bifemlh_r/activation	bifemsh_r/activation	sar_r/activation	add_long_r/activation	add_brev_r/activation	add_mag1_r/activation	add_mag2_r/activation	add_mag3_r/activation	tfl_r/activation	pect_r/activation	grac_r/activation	glut_max1_r/activation	glut_max2_r/activation	glut_max3_r/activation	iliacus_r/activation	psoas_r/activation	quad_fem_r/activation	gem_r/activation	peri_r/activation	rect_fem_r/activation	vas_med_r/activation	vas_int_r/activation	vas_lat_r/activation	med_gas_r/activation	lat_gas_r/activation	soleus_r/activation	tib_post_r/activation	flex_dig_r/activation	flex_hal_r/activation	tib_ant_r/activation	per_brev_r/activation	per_long_r/activation	per_tert_r/activation	ext_dig_r/activation	ext_hal_r/activation	ercspn_r/activation	intobl_r/activation	extobl_r/activation	
          0.53676224	         -2.92833784	          2.12773171	         -5.17066503	          0.67095281	          0.85895434	          0.00179980	         31.63055988	          3.08180660	         -1.94482399	        -17.94172019	         -1.71590016	          6.99168098	        -15.73461636	         -7.28672652	          6.59270795	          0.61071751	         -1.42399500	         11.47388620	         -0.12353553	         22.30767860	         -2.01792045	         -0.58922170	          1.77723448	         -8.88999995	        -13.55477995	          6.05251405	          6.94998396	        -13.45508898	         16.03735193	         15.48260772	         36.66752037	         86.51662706	         86.51662706	          0.05000031	          0.05000025	          0.05126857	          0.05000022	          0.05000026	          0.05000091	          0.05894594	          0.05894590	          0.13520522	          0.05000063	          0.05000130	          0.09350509	          0.13914880	          0.21320558	          0.17324204	          0.10936557	          0.05894585	          0.05021460	          0.05894650	          0.05127211	          0.06949253	          0.10652291	          0.05000026	          0.05000033	          0.21135976	          0.05001294	          0.05000165	          0.05000094	          0.12590128	          0.13067223	          0.10700433	          0.05894600	          0.05894592	          0.05894602	          0.05000006	          0.05000082	          0.05000130	          0.50978977	          0.35769925	          0.20471975	          0.26339928	          0.56351931	          0.25810825	          0.06486605	          0.10397312	          0.11386546	          0.30720339	          0.10559942	          0.07951771	          0.33523784	          0.22200455	          0.10984185	          0.05000248	          0.05000037	          0.05000024	          0.07702856	          0.11043659	          0.05845650	          0.05000092	          0.05000072	          0.05000162	          0.05000111	          0.30885507	          0.05000428	          0.05000070	          0.05000335	          0.05000271	          0.05000195	          0.34049373	          0.58069940	          0.05000017	          0.05000058	          0.05000035	          0.18647955	          0.05537595	          0.05000290	          0.05000307	          0.31065121	          0.42073472	          0.29168983	          0.26426077	          0.27809918	          0.35239315	          0.05000003	          0.06949358	          0.18613819	          0.05000027	          0.05000006	          0.05000018	          0.05000002	          0.05000004	          0.05000006	
          0.54749749	         -2.92164106	          2.22811436	         -5.43825054	          0.68703953	          0.85790888	          0.00159573	         30.99373840	          3.46037372	         -1.74524537	        -17.72605683	         -2.00896520	          6.76751310	        -15.53403568	         -9.35487060	          6.03360707	         -0.23382635	         -1.90563479	         12.41452363	         -0.11053464	         23.25550542	         -1.83230996	         -0.83146143	          1.84818181	         -9.88170428	        -13.55275679	          5.89860613	          6.76684893	        -13.46684731	         16.26832937	         15.33183707	         37.76404921	         86.51662706	         86.51662706	          0.05850069	          0.05003672	          0.05000026	          0.05894557	          0.05134700	          0.05000094	          0.05000006	          0.05000021	          0.11468572	          0.05000024	          0.05000361	          0.07931454	          0.11803089	          0.27462190	          0.19912415	          0.09660737	          0.05000034	          0.05000246	          0.05000087	          0.05894562	          0.05894622	          0.10958120	          0.05000101	          0.05000291	          0.52301714	          0.12957097	          0.09592538	          0.06949300	          0.22825968	          0.23235685	          0.19527174	          0.05000000	          0.05000002	          0.05000000	          0.05000678	          0.06949190	          0.05564064	          0.58047328	          0.32737634	          0.21269382	          0.49107334	          0.60598063	          0.24109603	          0.05502157	          0.08819349	          0.09658451	          0.26058029	          0.08957299	          0.06744998	          0.28436011	          0.18831177	          0.09317160	          0.05000460	          0.05000069	          0.05000127	          0.06533824	          0.09367633	          0.14222502	          0.09455248	          0.06949290	          0.05003927	          0.06946310	          0.26198139	          0.08755823	          0.05031760	          0.05000322	          0.05000214	          0.05000230	          0.28881824	          0.51002048	          0.05001816	          0.06084826	          0.05894637	          0.15817859	          0.07173899	          0.15825354	          0.15420961	          0.26350475	          0.35688128	          0.24742108	          0.22415503	          0.23589356	          0.29891201	          0.05000004	          0.05894685	          0.15792621	          0.05000014	          0.05000004	          0.05000018	          0.05000008	          0.06949272	          0.05000005	
          0.55823273	         -2.91102279	          2.32616137	         -5.68281406	          0.70340391	          0.85682904	          0.00140789	         30.20296734	          3.77923961	         -1.47651469	        -17.43506602	         -2.29086369	          6.53136389	        -15.81963660	        -11.55437231	          5.48283973	         -1.23312556	         -2.41861254	         13.29320333	         -0.16149680	         24.02212524	         -1.62703737	         -1.07755624	          1.90949265	        -10.88425827	        -13.55372497	          5.78513565	          6.50549702	        -13.47952556	         16.43989375	         15.21186725	         38.82411548	         86.51662706	         86.51662706	          0.29467406	          0.05000011	          0.33224315	          0.05000028	          0.05000022	          0.27386233	          0.08688439	          0.05000040	          0.12216976	          0.05000012	          0.05000054	          0.08192671	          0.21971852	          0.23294409	          0.16891839	          0.12515769	          0.05000110	          0.06941034	          0.12606839	          0.05000018	          0.05000029	          0.09295077	          0.05894613	          0.05000212	          0.44364068	          0.10990657	          0.18415506	          0.05894631	          0.19361758	          0.19709297	          0.16563610	          0.05894619	          0.05894622	          0.05894606	          0.05894601	          0.05894555	          0.05894600	          0.49237688	          0.33122267	          0.18041409	          0.41654528	          0.61044922	          0.20450577	          0.05000007	          0.09658487	          0.08192622	          0.35368697	          0.07597883	          0.05721350	          0.24120410	          0.15973243	          0.07903132	          0.05000306	          0.05000076	          0.05000073	          0.05542214	          0.07945974	          0.15688911	          0.17322521	          0.05894733	          0.05894315	          0.05892444	          0.22222194	          0.08197344	          0.05050120	          0.05009384	          0.05050352	          0.05894312	          0.24498541	          0.48086542	          0.05894583	          0.05161420	          0.05000037	          0.13417242	          0.07747626	          0.13423625	          0.13080603	          0.22351354	          0.30271865	          0.20987084	          0.19013584	          0.20009298	          0.25354728	          0.05000003	          0.05000121	          0.20249290	          0.05000010	          0.05000010	          0.05000018	          0.05897535	          0.05894606	          0.05430452	
          0.56896798	         -2.89824640	          2.42338403	         -5.89665276	          0.71987079	          0.85572852	          0.00120987	         29.27581997	          4.06236157	         -1.19560345	        -17.04145832	         -2.56015636	          6.29216086	        -16.12122647	        -13.91364426	          5.12733996	         -2.35265277	         -2.94047715	         14.09926162	         -0.16590024	         24.51438148	         -1.41933246	         -1.32719947	          1.96204143	        -11.85116840	        -13.55731328	          5.73152378	          6.19314061	        -13.49679635	         16.56595669	         15.09066324	         39.83089482	         86.51662706	         86.51662706	          0.33725826	          0.30629990	          0.38936440	          0.20893433	          0.19210292	          0.23229965	          0.07369865	          0.11995698	          0.10362867	          0.08192646	          0.05000514	          0.06949303	          0.18637264	          0.19759136	          0.15495689	          0.16113163	          0.05000028	          0.05887663	          0.11300005	          0.23367400	          0.17669599	          0.14757045	          0.05000012	          0.05000013	          0.37631095	          0.09322678	          0.15620698	          0.05000025	          0.16423325	          0.22346084	          0.14049994	          0.05000015	          0.05000019	          0.05000002	          0.05000000	          0.05000051	          0.05000024	          0.61691883	          0.37638514	          0.18910732	          0.65992846	          0.67459047	          0.35383253	          0.07601608	          0.08192659	          0.06949257	          0.30000998	          0.06444782	          0.05000004	          0.30469106	          0.13549048	          0.06703707	          0.05000379	          0.05000018	          0.05000015	          0.05000022	          0.06740107	          0.15884190	          0.14693602	          0.05000145	          0.05000114	          0.05000062	          0.20958164	          0.06954169	          0.05000049	          0.05000100	          0.05000064	          0.05000043	          0.20780490	          0.43529250	          0.05000008	          0.05000034	          0.05000021	          0.11386549	          0.08027202	          0.11386530	          0.11386525	          0.18959167	          0.25677610	          0.17801947	          0.16127962	          0.16972570	          0.21506739	          0.10353992	          0.14403929	          0.17176152	          0.05000876	          0.17136561	          0.05000156	          0.09179170	          0.05000003	          0.05000004	
